<?xml version="1.0" encoding="UTF-8"?>
<svg xmlns="http://www.w3.org/2000/svg" xmlns:xlink="http://www.w3.org/1999/xlink" x="0px" y="0px" width="379" height="263" viewBox="0 0 389 270" enable-background="new 0 0 389 270" xml:space="preserve">
<polygon fill="#CCCCCC" points="275.114,49.602 275.857,50.718 275.872,50.718 288.628,42.328 284.072,37.529 274.964,49.37"/>
<path fill="#999999" d="M122.974,186.565L122.974,186.565c-0.606-0.521-1.521-1.391-2.099-1.94l0,0l-16.765,10.938l3.541,3.12  l4.199,3.884L122.974,186.565z"/>
<path fill="#3B3B3C" d="M369.859,198.684H215.61v3.884h152.094c0,0,11.613,22.262,2.155,51.943c0,0,3.654-6.72,5.435-16.995  C379.476,214.586,369.859,198.684,369.859,198.684z"/>
<g>
	<radialGradient id="SVGID_1_" cx="284.0225" cy="37.5103" r="0.0541" gradientUnits="userSpaceOnUse">
		<stop offset="0.3006" style="stop-color:#E0E0E0"/>
		<stop offset="0.3509" style="stop-color:#D7D7D7"/>
		<stop offset="0.6497" style="stop-color:#A4A4A4"/>
		<stop offset="0.8753" style="stop-color:#848484"/>
		<stop offset="1" style="stop-color:#787878"/>
	</radialGradient>
	<path fill="url(#SVGID_1_)" d="M284.006,37.503c0.042,0.017,0.066,0.026,0.066,0.026l-0.097-0.039   C283.986,37.494,283.996,37.499,284.006,37.503z"/>
</g>
<radialGradient id="SVGID_2_" cx="239.5225" cy="127.7485" r="244.0031" gradientUnits="userSpaceOnUse">
	<stop offset="0.0491" style="stop-color:#E8E8E8"/>
	<stop offset="0.0547" style="stop-color:#D3D3D3"/>
	<stop offset="0.0662" style="stop-color:#AFAFAF"/>
	<stop offset="0.0792" style="stop-color:#8F8F8F"/>
	<stop offset="0.0936" style="stop-color:#737373"/>
	<stop offset="0.1098" style="stop-color:#5D5D5D"/>
	<stop offset="0.1287" style="stop-color:#4D4D4D"/>
	<stop offset="0.1521" style="stop-color:#414141"/>
	<stop offset="0.1849" style="stop-color:#3A3A3A"/>
	<stop offset="0.2761" style="stop-color:#383838"/>
	<stop offset="0.3159" style="stop-color:#3A3A3A"/>
	<stop offset="0.3361" style="stop-color:#424242"/>
	<stop offset="0.3519" style="stop-color:#4F4F4F"/>
	<stop offset="0.3653" style="stop-color:#626262"/>
	<stop offset="0.3774" style="stop-color:#7B7B7B"/>
	<stop offset="0.3884" style="stop-color:#999999"/>
	<stop offset="0.3985" style="stop-color:#BDBDBD"/>
	<stop offset="0.4079" style="stop-color:#E5E5E5"/>
	<stop offset="0.411" style="stop-color:#F5F5F5"/>
	<stop offset="0.5031" style="stop-color:#F2F2F2"/>
	<stop offset="0.7423" style="stop-color:#DBDBDB"/>
	<stop offset="0.7544" style="stop-color:#D9D9D9"/>
	<stop offset="0.7588" style="stop-color:#D3D3D3"/>
	<stop offset="0.7619" style="stop-color:#C7C7C7"/>
	<stop offset="0.7644" style="stop-color:#B6B6B6"/>
	<stop offset="0.7666" style="stop-color:#A0A0A0"/>
	<stop offset="0.7685" style="stop-color:#858585"/>
	<stop offset="0.7702" style="stop-color:#646464"/>
	<stop offset="0.7718" style="stop-color:#404040"/>
	<stop offset="0.773" style="stop-color:#1C1C1C"/>
	<stop offset="0.7931" style="stop-color:#3B3B3B"/>
	<stop offset="0.8345" style="stop-color:#767676"/>
	<stop offset="0.8745" style="stop-color:#A7A7A7"/>
	<stop offset="0.912" style="stop-color:#CDCDCD"/>
	<stop offset="0.9465" style="stop-color:#E9E9E9"/>
	<stop offset="0.9769" style="stop-color:#F9F9F9"/>
	<stop offset="1" style="stop-color:#FFFFFF"/>
</radialGradient>
<path fill="url(#SVGID_2_)" d="M373,193.799H233.638c6.521-4.315,12.767-9.092,18.683-14.3  c70.965-62.495,57.554-157.075,57.554-157.075l-7.796-8.882c0,0-21.086-6.144-48.508-6.144c-31.05,0-76.338,7.293-115.789,42.041  C81.78,98.749,78.779,167.051,80.044,193.799H18.25c0,0-8.073,15.571-8.073,32.793c0,17.234,8.073,32.806,8.073,32.806H373  c0,0,8.131-15.571,8.131-32.806C381.131,209.37,373,193.799,373,193.799z M369.859,254.511H21.445c0,0-6.381-11.736-6.381-27.919  c0-16.173,6.381-27.908,6.381-27.908H85.25c-1.814-22.463-2.443-94.332,55.76-145.58C210.791-8.357,299.34,17.826,299.34,17.826  l5.92,6.746c0,0,13.617,89.807-56.168,151.257c-10.864,9.571-22.159,17.044-33.481,22.854h154.249c0,0,9.616,15.902,5.435,38.832  C373.514,247.791,369.859,254.511,369.859,254.511z"/>
<path fill="#141414" d="M23.892,202.639h61.485l-0.127-3.955H21.445c0,0-6.381,11.735-6.381,27.908  c0,16.183,6.381,27.919,6.381,27.919S11.261,221.668,23.892,202.639z"/>
<g>
	<path fill="#FFFFFF" d="M239.447,66.653c-4.035,2.89-11.745,6.83-21.665,4.389c-17.206-4.237-22.128-19.055-22.128-19.055   s-4.917,14.818-22.112,19.055c-9.939,2.441-17.657-1.499-21.681-4.389h-3.107v79.883c0,2.023,0.493,6.011,3.768,9.988   c4.055,4.926,10.918,8.102,20.407,9.471c7.55,1.104,13.143,3.479,17.085,7.258c2.898,2.797,5.64,7.615,5.64,7.615   s2.871-4.906,5.648-7.615c3.934-3.778,9.538-6.153,17.09-7.258c9.484-1.355,16.344-4.545,20.402-9.471   c3.267-3.978,3.76-7.965,3.76-9.988V66.653H239.447z"/>
	<path fill="#0F3063" d="M239.747,69.761c0,0-9.399,7.318-22.645,4.009c-15.447-3.855-21.448-15.43-21.448-15.43   s-5.989,11.575-21.443,15.43c-13.234,3.309-22.641-4.009-22.641-4.009v76.775c0,2.615,1.087,13.685,21.754,16.679   c8.169,1.173,14.262,3.807,18.636,8.018c1.581,1.515,2.781,3.06,3.693,4.463c0.913-1.403,2.117-2.948,3.689-4.463   c4.397-4.211,10.479-6.845,18.645-8.018c20.66-2.994,21.75-14.063,21.759-16.679V69.761z"/>
	<path fill="#FFFFFF" d="M195.654,167.873c0,0,6.001-7.377,21.592-9.782   c17.852-2.758,17.318-11.134,17.318-11.565v-40.218h-77.817v40.218c0,0.432-0.532,8.808,17.319,11.565   C189.665,160.496,195.654,167.873,195.654,167.873z"/>
	<g>
		<path fill="#CF142B" d="M177.512,135.706v-19.122l-2.404-1.354v-4.962h10.937v4.962l-2.284,1.354v39.009l-5.846-1.768    l-8.448-24.895v16.421l2.685,2.062v5.059l-11.73-2.987v-4.315l2.684-1.048v-27.529l-2.75-1.363v-4.962h8.875L177.512,135.706z"/>
		<path fill="#CF142B" d="M197.635,153.187l2.339,2.807v4.952l-11.614-4.343v-4.207l2.56-1.05v-34.762l-2.548-1.308v-5.008h20.162    v10.094h-4.421l-1.347-4.14h-5.132v11.67h3.854l1.515-2.222h3.088v10.389h-3.088l-1.464-2.109h-3.904V153.187z"/>
		<path fill="#CF142B" d="M210.457,154.944v-4.964l2.886-2.356v-31.04l-2.466-1.308v-5.008h11.633v5.008l-2.289,1.308v29.124    l4.991-1.367l0.963-7.622h4.782v12.747L210.457,154.944z"/>
	</g>
	<g>
		<g>
			<path fill="#FFFFFF" d="M158.763,98.083l-3.515-2.652h4.296l1.433-4.067l1.41,4.067h4.315l-3.531,2.652l1.294,4.14l-3.488-2.452     l-3.503,2.452L158.763,98.083z"/>
		</g>
		<g>
			<path fill="#FFFFFF" d="M174.04,98.083l-3.515-2.652h4.289l1.425-4.067l1.417,4.067h4.312l-3.519,2.652l1.289,4.14l-3.5-2.452     l-3.496,2.452L174.04,98.083z"/>
		</g>
		<g>
			<path fill="#FFFFFF" d="M158.763,84.313l-3.515-2.652h4.296l1.433-4.083l1.41,4.083h4.315l-3.531,2.652l1.294,4.13l-3.488-2.451     l-3.503,2.451L158.763,84.313z"/>
		</g>
		<g>
			<path fill="#FFFFFF" d="M174.04,84.313l-3.515-2.652h4.289l1.425-4.083l1.417,4.083h4.312l-3.519,2.652l1.289,4.13l-3.5-2.451     l-3.496,2.451L174.04,84.313z"/>
		</g>
	</g>
	<g>
		<g>
			<path fill="#FFFFFF" d="M233.852,102.223l-3.504-2.452l-3.493,2.452l1.279-4.14l-3.513-2.652h4.297l1.43-4.067l1.426,4.067h4.287     l-3.516,2.652L233.852,102.223z"/>
		</g>
		<g>
			<path fill="#FFFFFF" d="M218.578,102.223l-3.507-2.452l-3.5,2.452l1.306-4.14l-3.527-2.652h4.305l1.417-4.067l1.425,4.067h4.292     l-3.519,2.652L218.578,102.223z"/>
		</g>
		<g>
			<path fill="#FFFFFF" d="M233.852,88.444l-3.504-2.451l-3.493,2.451l1.279-4.13l-3.513-2.652h4.297l1.43-4.083l1.426,4.083h4.287     l-3.516,2.652L233.852,88.444z"/>
		</g>
		<g>
			<path fill="#FFFFFF" d="M218.578,88.444l-3.507-2.451l-3.5,2.451l1.306-4.13l-3.527-2.652h4.305l1.417-4.083l1.425,4.083h4.292     l-3.519,2.652L218.578,88.444z"/>
		</g>
	</g>
	<path fill="#FFFFFF" d="M205.345,73.256c0,0-1.817,0.943-4.358,3.443c0.571,0.324,1.213,0.782,1.59,1.078   c-0.381,0.353-0.777,0.713-1.143,1.06c-1.65-1.356-3.374-2.05-4.711-2.376c0.438-0.324,0.912-0.621,1.367-0.935   c0.722,0.171,1.421,0.468,1.421,0.468c2.871-2.207,5.36-3.13,5.36-3.13s-0.287-0.154-1.063-0.132   c-11.283,0.132-21.705,8.578-19.747,23.013c0.233,1.526,0.808,4.303,1.561,5.535c0.256-2.407,1.158-7.722,3.842-13.416   c-0.929-0.334-1.709-0.469-1.709-0.469c0.284-0.573,0.656-1.306,0.656-1.306c1.985,0.37,3.732,1.202,5.251,2.403   c-0.365,0.583-0.613,0.973-0.788,1.271c-0.524-0.41-1.064-0.773-1.659-1.1c-3.002,5.269-4.396,10.221-4.972,12.826   c0.035,0.16,0.361,0.248,0.63,0.228c12.378-1.613,18.169-7.938,19.926-14.771c1.172-4.486,0.779-9.189-0.766-13.004   C205.928,73.664,205.711,73.225,205.345,73.256z M194.719,86.889c-1.624-1.344-3.504-2.175-5.34-2.509c0,0,0.559-0.937,0.893-1.411   c2.253,0.447,4.078,1.508,5.352,2.576C195.305,86.012,194.991,86.469,194.719,86.889z M196.739,84.026   c-1.496-1.257-3.311-2.183-5.361-2.604c0.311-0.401,0.675-0.829,1.037-1.222c1.566,0.261,3.573,1.097,5.337,2.539   C197.394,83.177,197.057,83.617,196.739,84.026z M198.999,81.31c-1.562-1.289-3.317-2.13-5.182-2.531   c0.451-0.419,0.909-0.793,1.321-1.126c2.331,0.563,3.896,1.605,4.976,2.489C199.725,80.525,199.36,80.927,198.999,81.31z"/>
</g>
<linearGradient id="SVGID_3_" gradientUnits="userSpaceOnUse" x1="101.1167" y1="111.4951" x2="284.0723" y2="111.4951">
	<stop offset="0.3006" style="stop-color:#333333"/>
	<stop offset="0.5678" style="stop-color:#555657"/>
	<stop offset="0.8457" style="stop-color:#737477"/>
	<stop offset="1" style="stop-color:#7E8083"/>
</linearGradient>
<path fill="url(#SVGID_3_)" d="M110.75,111.75c-15.024,39.805-8.451,75.904-6.64,83.813l16.765-10.938  c-0.748-0.709-1.153-1.326-1.838-2.108c-26.552-30.16-1.67-95.465,28.474-122.02c24.117-21.235,72.912-36.458,105.08-26.29  c8.061,2.548,15.077,6.69,20.399,12.732c0.754,0.857,1.974,2.431,1.974,2.431l9.108-11.841c0,0-0.025-0.009-0.066-0.026  c-0.01-0.004-0.02-0.009-0.03-0.012l0.097,0.039c0,0-10.843-5.966-31.322-8.779c-12.275-1.687-25.453-1.752-37.75-0.25  c-26.603,3.25-53.333,14.667-71.833,32C126.729,75.901,117.374,94.202,110.75,111.75z"/>
<g>
	<path fill="#EDEDED" d="M288.628,42.328l-12.756,8.391c18.828,27.518,2.76,78.44-20.956,107.865   c13.523-13.833,22.206-30.897,27.761-46.752c4.013-11.455,6.257-22.363,7.156-31.165C291.78,61.604,289.655,47.365,288.628,42.328z   "/>
	<path fill="#A6A6A6" d="M254.916,158.583c-0.533,0.661-1.065,1.325-1.605,1.965c0.044-0.026,0.086-0.055,0.129-0.081   c-3.013,3.264-6.426,6.276-9.759,9.216c-18.367,16.18-50.745,28.589-79.252,29.001c-0.878,0.013-1.75,0.01-2.62,0   c-14.999-0.178-28.997-3.806-38.835-12.118l-11.124,16.002c38.079,4.903,69.178,0.001,92.15-7.9   c26.167-9,42.858-23.452,51.75-32.917c16.644-17.716,24.84-42.024,26.927-49.919C277.122,127.686,268.439,144.75,254.916,158.583z"/>
</g>
<g>
	<radialGradient id="SVGID_4_" cx="189.9551" cy="135.208" r="222.3637" gradientUnits="userSpaceOnUse">
		<stop offset="0.3006" style="stop-color:#E0E0E0"/>
		<stop offset="0.465" style="stop-color:#CFCFCF"/>
		<stop offset="0.8091" style="stop-color:#AFAFAF"/>
		<stop offset="1" style="stop-color:#A3A3A3"/>
	</radialGradient>
	<path fill="url(#SVGID_4_)" d="M62.787,219.857H46.311v7.084h16.476c1.022,0,1.919-0.901,1.919-1.924v-3.24   C64.706,220.752,63.809,219.857,62.787,219.857z"/>
	<radialGradient id="SVGID_5_" cx="189.9551" cy="135.208" r="222.3635" gradientUnits="userSpaceOnUse">
		<stop offset="0.3006" style="stop-color:#E0E0E0"/>
		<stop offset="0.465" style="stop-color:#CFCFCF"/>
		<stop offset="0.8091" style="stop-color:#AFAFAF"/>
		<stop offset="1" style="stop-color:#A3A3A3"/>
	</radialGradient>
	<path fill="url(#SVGID_5_)" d="M133.389,219.835c-0.063,0.115-0.171,0.447-0.36,0.901l-4.018,10.035h8.823l-4.023-10.036   C133.522,220.017,133.406,219.863,133.389,219.835z"/>
	<radialGradient id="SVGID_6_" cx="189.9551" cy="135.208" r="222.3638" gradientUnits="userSpaceOnUse">
		<stop offset="0.3006" style="stop-color:#E0E0E0"/>
		<stop offset="0.465" style="stop-color:#CFCFCF"/>
		<stop offset="0.8091" style="stop-color:#AFAFAF"/>
		<stop offset="1" style="stop-color:#A3A3A3"/>
	</radialGradient>
	<path fill="url(#SVGID_6_)" d="M367.704,202.567H215.61v-3.884c11.322-5.811,22.617-13.283,33.481-22.854   c69.785-61.45,56.168-151.257,56.168-151.257l-5.92-6.746c0,0-88.549-26.184-158.331,35.277   c-58.203,51.248-57.574,123.117-55.76,145.58l0.127,3.955H23.892c-12.631,19.029-2.447,51.872-2.447,51.872h348.415   C379.317,224.829,367.704,202.567,367.704,202.567z M72.637,221.829v3.188v2.45c0,5.412-4.416,9.811-9.85,9.811H46.311v9.247v2.457   h-7.927v-2.457v-34.538v-2.457h24.403c5.434,0,9.85,4.418,9.85,9.843V221.829z M108.398,241.104v5.421v2.457H88.146   c-4.653,0-8.292-3.641-8.292-8.297v-2.456v-26.242v-2.457h7.923v2.457v26.301c0,0.197,0.168,0.359,0.369,0.359h20.252V241.104z    M111.85,202.567c-0.867-0.765-4.199-3.884-4.201-3.884l-3.538-3.12c-1.812-7.909-8.384-44.009,6.64-83.813   c6.624-17.548,15.979-35.849,32.417-51.25c18.5-17.333,45.23-28.75,71.833-32c12.297-1.502,25.475-1.437,37.75,0.25   c20.479,2.813,31.322,8.779,31.322,8.779l4.556,4.798c1.027,5.037,3.152,19.276,1.205,38.339   c-0.899,8.801-3.144,19.709-7.156,31.165c-2.087,7.895-10.283,32.203-26.927,49.919c-8.892,9.465-25.583,23.917-51.75,32.917   C181.028,202.568,149.929,207.471,111.85,202.567C111.837,202.557,111.967,202.671,111.85,202.567z M153.694,248.061l0.369,0.922   h-9.056l-3.162-8.029h-16.854l-3.166,8.029h-9.12l0.365-0.922c0.21-0.533,0.403-1.021,0.605-1.535h-0.97l0.365-0.922   c7.535-19.101,10.371-26.211,11.431-28.879c0.47-1.178,0.59-1.469,0.618-1.558c0.948-2.135,2.536-5.637,6.917-5.637h2.7   c4.366,0,5.955,3.495,6.809,5.365c0.132,0.351,0.237,0.619,0.648,1.639c1.002,2.515,3.783,9.494,11.5,29.069l0.369,0.922h-0.975   C153.288,247.03,153.488,247.539,153.694,248.061z M177.757,232.536c-1.591,2.131-3.027,3.202-4.351,3.878v10.111v2.457h-8.083   v-2.457v-10.111c-1.328-0.676-2.907-1.913-4.375-3.914l-14.406-20.513h2.31l-1.726-2.457h9.532l11.513,16.387   c0.719,1.075,0.719,1.075,1.192,1.075c0.479,0,0.479,0,1.173-1.039l0.287-0.431l11.253-15.992h9.516l-1.724,2.457h2.307   L177.757,232.536z M231.474,224.888v8.736v2.459c0,7.112-5.721,12.899-12.748,12.899h-13.788c-7.026,0-12.743-5.855-12.743-13.06   v-2.452v-8.54v-2.451c0-7.143,5.717-12.949,12.743-12.949h13.788c7.027,0,12.748,5.787,12.748,12.9V224.888z M272.004,211.987   v5.408v2.462h-23.748c-1.017,0-1.91,0.895-1.91,1.92v2.317h24.146v2.448v5.418v2.466h-24.146v12.099v2.457h-7.881v-2.457v-24.696   v-2.456c0-5.425,4.393-9.843,9.791-9.843h23.748V211.987z M312.259,211.987v5.408v2.462h-23.735c-1.025,0-1.923,0.895-1.923,1.92   v2.317h24.15v2.448v5.418v2.466h-24.15v12.099v2.457h-7.877v-2.457v-24.696v-2.456c0-5.425,4.393-9.843,9.8-9.843h23.735V211.987z    M352.93,236.582c0,0.171-0.019,0.337-0.026,0.507c0.012,0.18,0.026,0.359,0.026,0.543v1.403c0,5.581-4.397,9.947-10.006,9.947   h-23.895v-2.457v-5.421v-2.457h23.895c0.966,0,1.774-0.638,2.029-1.501c-0.158-0.37-0.6-0.826-1.851-1.079l-17.198-3.376   c-5.008-0.99-8.37-4.754-8.37-9.362v-1.447c0-0.161,0.017-0.316,0.024-0.477c-0.01-0.178-0.024-0.354-0.024-0.534v-1.445   c0-5.458,4.485-9.896,9.996-9.896h23.945v2.457v5.408v2.462H327.53c-0.911,0-1.699,0.634-1.966,1.476   c0.283,0.651,1.141,0.967,1.889,1.108l17.098,3.368c5.011,1.018,8.379,4.781,8.379,9.37V236.582z"/>
	<radialGradient id="SVGID_7_" cx="189.9551" cy="135.208" r="222.3634" gradientUnits="userSpaceOnUse">
		<stop offset="0.3006" style="stop-color:#E0E0E0"/>
		<stop offset="0.465" style="stop-color:#CFCFCF"/>
		<stop offset="0.8091" style="stop-color:#AFAFAF"/>
		<stop offset="1" style="stop-color:#A3A3A3"/>
	</radialGradient>
	<path fill="url(#SVGID_7_)" d="M218.726,219.857h-13.788c-2.642,0-4.867,2.248-4.867,4.921v8.846c0,2.719,2.226,5.023,4.867,5.023   h13.788c2.642,0,4.875-2.181,4.875-4.765v-9.15C223.601,222.088,221.367,219.857,218.726,219.857z"/>
</g>
<g>
	<rect x="38.384" y="246.525" fill="#FFFFFF" width="7.927" height="2.457"/>
	<path fill="#FFFFFF" d="M62.787,217.396H46.311v2.462h16.476c1.022,0,1.919,0.895,1.919,1.92v-2.456   C64.706,218.298,63.809,217.396,62.787,217.396z"/>
	<path fill="#FFFFFF" d="M62.787,234.816H46.311v2.462h16.476c5.434,0,9.85-4.398,9.85-9.811v-2.45   C72.637,230.423,68.221,234.816,62.787,234.816z"/>
	<path fill="#FFFFFF" d="M79.854,238.229v2.456c0,4.656,3.639,8.297,8.292,8.297h20.252v-2.457H88.146   C83.493,246.525,79.854,242.88,79.854,238.229z"/>
	<path fill="#FFFFFF" d="M142.353,238.491h-17.944l-3.166,8.034h-7.566c-0.203,0.515-0.396,1.002-0.605,1.535l-0.365,0.922h9.12   l3.166-8.029h16.854l3.162,8.029h9.056l-0.369-0.922c-0.206-0.521-0.407-1.03-0.605-1.535h-7.574L142.353,238.491z"/>
	<path fill="#FFFFFF" d="M133.894,217.376h-1.087c-0.063,0.116-0.171,0.447-0.362,0.906l-5.003,12.489h1.569l4.018-10.035   c0.19-0.457,0.299-0.791,0.362-0.904h-0.003c0.015,0.025,0.131,0.175,0.423,0.903l4.023,10.036h1.494l-5.01-12.496   C134.025,217.556,133.909,217.398,133.894,217.376z"/>
	<rect x="165.324" y="246.525" fill="#FFFFFF" width="8.083" height="2.457"/>
	<path fill="#FFFFFF" d="M173.406,233.957v2.457c1.324-0.676,2.76-1.747,4.351-3.878l14.418-20.549h-2.307l-12.695,18.093   C176.09,231.889,174.73,233.281,173.406,233.957z"/>
	<path fill="#FFFFFF" d="M161.533,230.034l-12.68-18.047h-2.31l14.406,20.513c1.467,2.001,3.046,3.238,4.375,3.914v-2.457   C163.996,233.281,162.636,231.88,161.533,230.034z"/>
	<path fill="#FFFFFF" d="M218.726,246.525h-13.788c-7.026,0-12.743-5.858-12.743-13.055v2.452c0,7.204,5.717,13.06,12.743,13.06   h13.788c7.027,0,12.748-5.787,12.748-12.899v-2.459C231.474,240.738,225.753,246.525,218.726,246.525z"/>
	<path fill="#FFFFFF" d="M218.726,217.396h-13.788c-2.642,0-4.867,2.258-4.867,4.926v2.457c0-2.673,2.226-4.921,4.867-4.921h13.788   c2.642,0,4.875,2.23,4.875,4.875v-2.46C223.601,219.632,221.367,217.396,218.726,217.396z"/>
	<path fill="#FFFFFF" d="M246.346,219.321v2.456c0-1.025,0.894-1.92,1.91-1.92h23.748v-2.462h-23.748   C247.239,217.396,246.346,218.298,246.346,219.321z"/>
	<rect x="246.346" y="231.961" fill="#FFFFFF" width="24.146" height="2.466"/>
	<rect x="238.465" y="246.525" fill="#FFFFFF" width="7.881" height="2.457"/>
	<rect x="278.724" y="246.525" fill="#FFFFFF" width="7.877" height="2.457"/>
	<path fill="#FFFFFF" d="M286.601,219.321v2.456c0-1.025,0.897-1.92,1.923-1.92h23.735v-2.462h-23.735   C287.498,217.396,286.601,218.298,286.601,219.321z"/>
	<rect x="286.601" y="231.961" fill="#FFFFFF" width="24.15" height="2.466"/>
	<path fill="#FFFFFF" d="M345.045,235.18c0-0.297,0-1.174-1.942-1.565l-17.198-3.379c-4.812-0.952-8.096-4.467-8.346-8.83   c-0.008,0.16-0.024,0.315-0.024,0.477v1.447c0,4.608,3.362,8.372,8.37,9.362l17.198,3.376c1.251,0.253,1.692,0.709,1.851,1.079   c0.054-0.181,0.092-0.368,0.092-0.564V235.18z"/>
	<path fill="#FFFFFF" d="M342.924,246.525h-23.895v2.457h23.895c5.608,0,10.006-4.366,10.006-9.947v-1.403   c0-0.184-0.015-0.363-0.026-0.543C352.645,242.417,348.36,246.525,342.924,246.525z"/>
	<path fill="#FFFFFF" d="M325.461,219.473v1.398c0,0.172,0.043,0.321,0.104,0.462c0.267-0.842,1.055-1.476,1.966-1.476h23.945   v-2.462H327.53C326.409,217.396,325.461,218.348,325.461,219.473z"/>
	<path d="M62.787,209.53H38.384v2.457v34.538h7.927v-9.247v-2.462h16.476c5.434,0,9.85-4.394,9.85-9.799v-3.188v-2.456   C72.637,213.948,68.221,209.53,62.787,209.53z M64.706,221.777v3.24c0,1.022-0.897,1.924-1.919,1.924H46.311v-7.084v-2.462h16.476   c1.022,0,1.919,0.902,1.919,1.926V221.777z"/>
	<path d="M87.777,238.288v-26.301v-2.457h-7.923v2.457v26.242c0,4.65,3.639,8.296,8.292,8.296h20.252v-5.421v-2.457H88.146   C87.945,238.647,87.777,238.485,87.777,238.288z"/>
	<path d="M153.694,245.604c-7.717-19.575-10.498-26.555-11.5-29.069c-0.412-1.02-0.517-1.288-0.648-1.639   c-0.854-1.87-2.443-5.365-6.809-5.365h-2.7c-4.381,0-5.969,3.502-6.917,5.637c-0.028,0.089-0.148,0.38-0.618,1.558   c-1.061,2.668-3.896,9.778-11.431,28.879l-0.365,0.922h0.97h7.566l3.166-8.034h17.944l3.162,8.034h7.574h0.975L153.694,245.604z    M138.34,230.771h-9.913h-0.985l5.003-12.489c0.19-0.459,0.299-0.79,0.362-0.906h1.087c0.015,0.022,0.131,0.18,0.423,0.899   l5.01,12.496H138.34z"/>
	<path d="M182.076,209.53l-11.253,15.992l-0.287,0.431c-0.695,1.039-0.695,1.039-1.173,1.039c-0.473,0-0.473,0-1.192-1.075   l-11.513-16.387h-9.532l1.726,2.457l12.68,18.047c1.104,1.846,2.463,3.247,3.791,3.923v2.457v10.111h8.083v-10.111v-2.457   c1.324-0.676,2.684-2.068,3.768-3.877l12.695-18.093l1.724-2.457H182.076z"/>
	<path d="M218.726,209.53h-13.788c-7.026,0-12.743,5.807-12.743,12.949v2.451v8.54c0,7.196,5.717,13.055,12.743,13.055h13.788   c7.027,0,12.748-5.787,12.748-12.901v-8.736v-2.457C231.474,215.317,225.753,209.53,218.726,209.53z M223.601,224.732v9.15   c0,2.584-2.233,4.765-4.875,4.765h-13.788c-2.642,0-4.867-2.305-4.867-5.023v-8.846v-2.457c0-2.668,2.226-4.926,4.867-4.926h13.788   c2.642,0,4.875,2.236,4.875,4.877V224.732z"/>
	<path d="M238.465,219.373v2.456v24.696h7.881v-12.099v-2.466h24.146v-5.418v-2.448h-24.146v-2.317v-2.456   c0-1.023,0.894-1.926,1.91-1.926h23.748v-5.408v-2.457h-23.748C242.857,209.53,238.465,213.948,238.465,219.373z"/>
	<path d="M278.724,219.373v2.456v24.696h7.877v-12.099v-2.466h24.15v-5.418v-2.448h-24.15v-2.317v-2.456   c0-1.023,0.897-1.926,1.923-1.926h23.735v-5.408v-2.457h-23.735C283.116,209.53,278.724,213.948,278.724,219.373z"/>
	<path d="M352.93,235.18c0-4.589-3.368-8.353-8.379-9.37l-17.098-3.368c-0.748-0.142-1.605-0.457-1.889-1.108   c-0.061-0.141-0.104-0.29-0.104-0.462v-1.398c0-1.125,0.948-2.077,2.069-2.077h23.945v-5.408v-2.457H327.53   c-5.511,0-9.996,4.438-9.996,9.896v1.445c0,0.181,0.015,0.356,0.024,0.534c0.25,4.363,3.534,7.878,8.346,8.83l17.198,3.379   c1.942,0.392,1.942,1.269,1.942,1.565v1.402c0,0.196-0.038,0.384-0.092,0.564c-0.255,0.863-1.063,1.501-2.029,1.501h-23.895v2.457   v5.421h23.895c5.437,0,9.721-4.108,9.979-9.437c0.008-0.17,0.026-0.336,0.026-0.507V235.18z"/>
</g>
</svg>